<svg xmlns="http://www.w3.org/2000/svg" viewBox="0 0 200 69.95"><defs><style>.a{fill:#273b90;}.b{fill:#14a2c0;}.c{fill:#283f94;}</style></defs><title>vortex-logo-200</title><rect class="a" x="129.15" y="38.92" width="34.4" height="1.6" rx="0.75" ry="0.75"/><path class="a" d="M166,22.13c-3.55.14-6.69.19-9.43.19-4.8,0-8.36-.16-10.72-.32-1.18-.08-2.06-.16-2.64-.22l-.65-.07-.16,0h0a.84.84,0,0,0-.23,1.66h0a119.11,119.11,0,0,0,14.45.65c2.76,0,5.93-.05,9.5-.19a.84.84,0,0,0-.06-1.68Z"/><path class="b" d="M104.26,14.44a10.55,10.55,0,0,0-1.9-2.53A21.21,21.21,0,0,0,97,8.15a48.27,48.27,0,0,0-11.9-4A72.65,72.65,0,0,0,70.37,2.69,61.33,61.33,0,0,0,45.92,7.4a81.81,81.81,0,0,0-13.7,7.77v.94h1.6A79.57,79.57,0,0,1,46.59,8.93,59.68,59.68,0,0,1,70.37,4.37,71.69,71.69,0,0,1,83,5.47a56.9,56.9,0,0,1,8.25,2.1,29,29,0,0,1,9,4.64,10.55,10.55,0,0,1,2.41,2.7,5.37,5.37,0,0,1,.8,2.74q0,.12,0,.24h0a3.09,3.09,0,0,1-.38,1.35,3.82,3.82,0,0,1-1.68,1.54,6.59,6.59,0,0,1-3,.63,10.3,10.3,0,0,1-2.49-.32c-1.14-.28-2.23-.54-3.26-.72a16.7,16.7,0,0,0-2.91-.3,8,8,0,0,0-1.51.13,4.81,4.81,0,0,0-2,.83,4.36,4.36,0,0,0-1.38,1.75A2.85,2.85,0,0,0,84.62,24,4.13,4.13,0,0,0,85,25.59,9.16,9.16,0,0,0,87,28.38a20.74,20.74,0,0,0,5.69,3.79,27.39,27.39,0,0,0,8.05,2.31.84.84,0,0,0,.21-1.67,25.87,25.87,0,0,1-5.93-1.48,20.93,20.93,0,0,1-6.48-3.81,9.49,9.49,0,0,1-1.74-2,4.34,4.34,0,0,1-.42-.87,2.19,2.19,0,0,1-.13-.69,1.18,1.18,0,0,1,.1-.49,2.88,2.88,0,0,1,.53-.81A2.62,2.62,0,0,1,88,22a5.45,5.45,0,0,1,1.69-.23,15.08,15.08,0,0,1,2.61.27c1,.17,2,.42,3.15.7a12,12,0,0,0,2.9.37,7.67,7.67,0,0,0,4.67-1.41A5.21,5.21,0,0,0,104.5,20a4.77,4.77,0,0,0,.59-2.07h0q0-.16,0-.32A6.9,6.9,0,0,0,104.26,14.44Z"/><path class="b" d="M33.67,25.61a12.47,12.47,0,0,0,.66,2.92,19,19,0,0,0,2.33,4.64,24.52,24.52,0,0,0,9,7.77c4.43,2.34,10.46,4.18,18.66,4.83,3.14.25,6,.36,8.59.36,8.64,0,14.34-1.21,17.92-2.44A15.75,15.75,0,0,0,96,41.14a.84.84,0,1,0-1.12-1.25h0A15.35,15.35,0,0,1,90,42.22c-3.4,1.12-8.83,2.24-17,2.24-2.55,0-5.36-.11-8.46-.35a48.33,48.33,0,0,1-16.55-3.92,26.17,26.17,0,0,1-7.08-4.69,18.75,18.75,0,0,1-4.71-6.89,14.15,14.15,0,0,1-.67-2.28c-.05-.27-.09-.48-.1-.62l0-.15v0h0l-.36,0,.36,0h0l-.36,0,.36,0h0l-.8.05.8,0h0l-.8.05.8,0a.84.84,0,1,0-1.68.1Z"/><path class="b" d="M94.27,37.16S98,38.89,103,40.62A79.59,79.59,0,0,0,111.09,43a37.71,37.71,0,0,0,8.27,1.1,14.39,14.39,0,0,0,5.18-.83,25.54,25.54,0,0,0,5.84-3.15,22.9,22.9,0,0,0,5.38-5.57c1.28-1.85,2.16-3.6,2.94-4.91.88-1.49,2.35-4,4.28-6.91A84.82,84.82,0,0,1,154.08,8.85a33.11,33.11,0,0,1,6.71-5.17A17.33,17.33,0,0,1,164.2,2.2a11.65,11.65,0,0,1,3.37-.52,3.42,3.42,0,0,1,1.28.24,3.83,3.83,0,0,1,1,.57,6.79,6.79,0,0,1,1.49,1.77A18.68,18.68,0,0,1,173,8.19c.47,1.44.86,2.95,1.21,4.31.3,1.18.79,3.11,1.64,5.52a51.94,51.94,0,0,0,7,13.24A57.61,57.61,0,0,0,198.71,46a.84.84,0,0,0,.9-1.42A54.43,54.43,0,0,1,181.2,25.6a50.12,50.12,0,0,1-3.73-8.15c-.83-2.33-1.29-4.2-1.6-5.38s-.64-2.5-1.05-3.82a28.43,28.43,0,0,0-1.06-2.92,15.45,15.45,0,0,0-1-2A8,8,0,0,0,170.59,1a5.31,5.31,0,0,0-1.4-.71A5.13,5.13,0,0,0,167.57,0a14,14,0,0,0-5.12,1A28.35,28.35,0,0,0,154,6.59a75.48,75.48,0,0,0-10.51,12.34c-2.91,4.16-5.13,7.91-6.28,9.86-.55.93-1.1,2-1.77,3.1a23.85,23.85,0,0,1-4.07,5.2,22.56,22.56,0,0,1-7.47,4.62,12.76,12.76,0,0,1-4.58.71,36.11,36.11,0,0,1-7.89-1.05,86.33,86.33,0,0,1-11.34-3.59c-1.55-.6-2.83-1.14-3.73-1.53l-1-.46-.27-.12-.07,0h0a.84.84,0,1,0-.71,1.52Z"/><path class="b" d="M69.25,17.77a14.09,14.09,0,0,0-5.46-6,16.05,16.05,0,0,0-8.37-2.31,15.78,15.78,0,0,0-10.6,4,13.69,13.69,0,0,0-3.24,4.34,12.56,12.56,0,0,0,0,10.69,14.09,14.09,0,0,0,5.46,6,16.05,16.05,0,0,0,8.37,2.31,15.78,15.78,0,0,0,10.6-4,13.69,13.69,0,0,0,3.24-4.34,12.56,12.56,0,0,0,0-10.69Zm-1.52,10A12.42,12.42,0,0,1,62.91,33a14.37,14.37,0,0,1-7.5,2.07,14.11,14.11,0,0,1-9.47-3.54,12,12,0,0,1-2.84-3.81,10.88,10.88,0,0,1,0-9.27,12.41,12.41,0,0,1,4.82-5.28,14.37,14.37,0,0,1,7.5-2.07,14.11,14.11,0,0,1,9.47,3.54,12,12,0,0,1,2.84,3.81,10.88,10.88,0,0,1,0,9.27Z"/><path class="a" d="M6.62,50.19H9.07L6.36,58.08H15.8l2.72-7.89H21L14.35,69.43H11.9l3.11-9H5.56l-3.11,9H0Z"/><path class="a" d="M25.15,61.73,22.29,50.19h2.87l2,9.34h0l8.42-9.33H38.4L27.59,61.77,25,69.43H22.5Z"/><path class="a" d="M39.68,50.19h7.44q3.45,0,4.59,2.61t-.38,7a15.94,15.94,0,0,1-4.5,7,9.73,9.73,0,0,1-6.53,2.6H33.06Zm-3.41,17h4.48a6.82,6.82,0,0,0,4.73-1.92,13,13,0,0,0,3.31-5.46q1.22-3.55.51-5.48t-3.25-1.93H41.37Z"/><path class="a" d="M57.87,50.19H66.3q2.88,0,3.93,1.33t.16,3.89a7.72,7.72,0,0,1-2.92,4A9,9,0,0,1,66.4,60l.33.21q1.3,1,.54,3.39L66.17,67.1a3.23,3.23,0,0,0-.22,1.24,1,1,0,0,0,.49.65l-.14.42h-3a5.88,5.88,0,0,1,.23-1.23q.24-1,.61-2.21l.47-1.52a3.11,3.11,0,0,0,.06-2.56q-.51-.77-2.27-.77H56.56L53.7,69.43H51.25Zm-.54,8.69h6.06a4.5,4.5,0,0,0,2.76-.79,5.08,5.08,0,0,0,1.65-2.51,2.67,2.67,0,0,0,0-2.43,2.82,2.82,0,0,0-2.36-.77H59.57Z"/><path class="a" d="M71,67.16q-1.41-2.79.08-7.33a16.09,16.09,0,0,1,4.76-7.35,10.6,10.6,0,0,1,7-2.8q3.8,0,5.2,2.8T88,59.82a16.05,16.05,0,0,1-4.75,7.33,10.61,10.61,0,0,1-7,2.79Q72.44,69.95,71,67.16Zm11-1.67a13,13,0,0,0,3.53-5.66q1.16-3.52.21-5.68A3.62,3.62,0,0,0,82.14,52a7.44,7.44,0,0,0-5.08,2.17,13,13,0,0,0-3.54,5.68q-1.16,3.51-.21,5.66A3.61,3.61,0,0,0,77,67.65,7.46,7.46,0,0,0,82.06,65.49Z"/><path class="a" d="M95.76,69.43l6.42-19.23H115l-.38,1.15-.38,1.15H103.78l-2,5.87h9.55L111,59.52l-.38,1.15h-9.55L98.9,67.12h10.59l-.38,1.15-.38,1.15Z"/><path class="a" d="M129.43,69.43l6.42-19.23h12.83l-.38,1.15-.38,1.15H137.45l-2,5.87H145l-.38,1.15-.38,1.15h-9.55l-2.15,6.45h10.59l-.38,1.15-.38,1.15Z"/><path class="a" d="M113.28,69.43h-2.36l6.62-19.23h2.94l3.68,15.63,5.38-15.63h2.36l-6.62,19.23H122.6l-3.92-15.69Z"/><path class="a" d="M150.64,50.19h8.42q2.88,0,3.93,1.33t.16,3.89a7.72,7.72,0,0,1-2.92,4,9,9,0,0,1-1.07.63l.33.21q1.3,1,.54,3.39l-1.11,3.51a3.23,3.23,0,0,0-.22,1.24,1,1,0,0,0,.49.65l-.14.42h-3a5.88,5.88,0,0,1,.23-1.23q.24-1,.61-2.21l.47-1.52a3.11,3.11,0,0,0,.06-2.56q-.51-.77-2.27-.77h-5.81l-2.86,8.29H144Zm-.54,8.69h6.06a4.5,4.5,0,0,0,2.76-.79,5.08,5.08,0,0,0,1.65-2.51,2.67,2.67,0,0,0,0-2.43,2.82,2.82,0,0,0-2.36-.77h-5.87Z"/><path class="a" d="M169.09,69.95a4.78,4.78,0,0,1-4.79-2.79q-1.28-2.79.18-7.33a16.36,16.36,0,0,1,4.58-7.35,9.89,9.89,0,0,1,6.71-2.8,5.08,5.08,0,0,1,4.2,1.77,5.25,5.25,0,0,1,.89,4.53h-2.21a3.36,3.36,0,0,0-.68-3,4,4,0,0,0-3.07-1,6.7,6.7,0,0,0-4.7,2.18,13.65,13.65,0,0,0-3.37,5.71q-1.21,3.76-.39,5.81t3.51,2.05a7.1,7.1,0,0,0,4.92-2.17,9.63,9.63,0,0,0,.69-.72,7.79,7.79,0,0,0,.92-1.43,10.86,10.86,0,0,0,.75-1.74l.08-.24H172l.71-2.2h7.4l-3.27,10.18h-1.43l.23-2.42-.18.17A9.21,9.21,0,0,1,169.09,69.95Z"/><path class="a" d="M186.54,61.73l-2.86-11.54h2.87l2,9.34h0L197,50.19h2.83L189,61.77l-2.64,7.65h-2.45Z"/><path class="a" d="M89.89,2a.84.84,0,0,0-1.08.5L75.38,38.85a.84.84,0,0,0,1.57.58L90.38,3.11A.84.84,0,0,0,89.89,2Z"/><path class="a" d="M143.29,7.48a.84.84,0,1,0,0-1.68c-10.81-.28-20-.33-25.58-.33-3.73,0-5.89,0-5.89,0a.84.84,0,1,0,0,1.68h.1c.46,0,2.51,0,5.77,0l6.45,0L113.38,35.95a.84.84,0,1,0,1.57.59L126,7.18C130.88,7.23,136.79,7.31,143.29,7.48Z"/><path class="a" d="M187.4,4.33a.84.84,0,0,0-1.08.49S178.08,26.49,172,43.28a.84.84,0,1,0,1.58.57c3.05-8.39,6.64-18,9.46-25.51,1.41-3.76,2.63-7,3.5-9.28l1-2.68.27-.72.09-.25A.84.84,0,0,0,187.4,4.33Z"/><path class="c" d="M33.5,14.28A99.54,99.54,0,0,0,18.15,27.11a103.34,103.34,0,0,0-7,7.86L21.27,3.08a.84.84,0,1,0-1.6-.51h0L8.07,39.19a.84.84,0,0,0,1.5.72h0A89.11,89.11,0,0,1,19.5,28.13a97.68,97.68,0,0,1,15-12.53Z"/></svg>